# Blender 4.3.1
# www.blender.org
mtllib airport small.mtl
o Gound
v 350.000000 0.500000 -10.000000
v 350.000000 -0.500000 -10.000000
v 350.000000 0.500000 10.000000
v 350.000000 -0.500000 10.000000
v -350.000000 0.500000 -21.752140
v -350.000000 -0.500000 -21.752140
v -350.000000 0.500000 10.000000
v -350.000000 -0.500000 10.000000
v 341.306305 -0.500000 -10.000000
v 341.306305 0.500000 -10.000000
v -213.648285 -0.500000 -10.000000
v -238.883698 -0.500000 -10.000000
v -238.883728 0.500000 -10.000000
v -213.648285 0.500000 -10.000000
v -313.848755 -0.500000 -10.000000
v -313.848755 0.500000 10.000000
v -313.848755 -0.500000 10.000000
v -313.848755 0.500000 -10.000000
v -320.458679 -0.500000 -21.752140
v -320.458679 0.500000 10.000000
v -320.458679 -0.500000 10.000000
v -320.458679 0.500000 -21.752140
v 350.000000 0.500000 46.482185
v 350.000000 -0.500000 46.482185
v 341.306305 0.500000 46.482185
v 341.306305 -0.500000 46.482185
v 340.183014 0.500000 10.000000
v 341.306305 0.500000 11.123299
v 342.429596 0.500000 10.000000
v 341.306305 0.500000 8.876701
v 340.612885 0.500000 10.085506
v 340.977295 0.500000 10.329006
v 341.220795 0.500000 10.693431
v 341.306305 -0.500000 11.123299
v 340.183014 -0.500000 10.000000
v 341.306305 -0.500000 8.876701
v 342.429596 -0.500000 10.000000
v 341.220795 -0.500000 10.693431
v 340.977295 -0.500000 10.329006
v 340.612885 -0.500000 10.085506
v -303.320435 0.500000 46.482185
v -328.555847 0.500000 46.482185
v -328.555878 -0.500000 46.482185
v -303.320435 -0.500000 46.482185
v 350.000000 0.500000 58.669380
v 350.000000 -0.500000 58.669380
v 341.306305 -0.500000 58.669380
v 341.306305 0.500000 58.669380
v -303.320435 0.500000 58.669380
v -328.555847 0.500000 58.669380
v -328.555878 -0.500000 58.669380
v -303.320435 -0.500000 58.669380
v -223.981979 0.500000 14.204157
v -203.573563 0.500000 10.000000
v -213.648285 0.500000 -0.074718
v -223.723007 0.500000 10.000000
v -219.260559 0.500000 12.595296
v -213.724136 0.500000 11.231369
v -208.215591 0.500000 10.320023
v -248.958420 0.500000 10.000000
v -249.217392 0.500000 14.204155
v -228.808975 0.500000 10.000000
v -238.883713 0.500000 -0.074718
v -245.889603 0.500000 10.320023
v -244.861191 0.500000 11.231369
v -246.029755 0.500000 12.595295
v -249.257492 -0.500000 14.220457
v -248.958450 -0.500000 10.000000
v -247.618622 -0.500000 12.885350
v -246.990463 -0.500000 11.673185
v -247.462952 -0.500000 10.688189
v -203.573563 -0.500000 10.000000
v -224.022034 -0.500000 14.220455
v -208.452148 -0.500000 10.688189
v -213.766815 -0.500000 11.673185
v -219.097595 -0.500000 12.885349
v 29.403137 0.500000 46.482185
v 8.582733 0.500000 46.482185
v 8.582733 0.500000 58.669380
v 29.403137 0.500000 58.669380
v 8.582733 -0.500000 58.669380
v 29.403137 -0.500000 58.669380
v 8.582733 -0.500000 46.482185
v 29.403137 -0.500000 46.482185
v 8.582733 0.500000 73.877190
v 29.403137 0.500000 73.877190
v 8.582733 -0.500000 73.877190
v 29.403137 -0.500000 73.877190
v -123.470505 0.500000 78.609100
v 161.456375 0.500000 78.609100
v -123.470505 -0.500000 78.609100
v 161.456375 -0.500000 78.609100
v -123.470505 0.500000 169.235641
v 161.456375 0.500000 169.235641
v -123.470505 -0.500000 169.235641
v 161.456375 -0.500000 169.235641
vn -0.0000 1.0000 -0.0000
vn -0.0000 -0.0000 1.0000
vn -1.0000 -0.0000 -0.0000
vn 1.0000 -0.0000 -0.0000
vn -0.0000 -0.0000 -1.0000
vn -0.0000 -1.0000 -0.0000
vn 0.8716 -0.0000 -0.4902
vn -0.3768 -0.0000 -0.9263
vn 0.3768 -0.0000 0.9263
vn -0.1951 -0.0000 0.9808
vn -0.5556 -0.0000 0.8315
vn -0.8314 -0.0000 0.5556
vn -0.9808 -0.0000 0.1951
vn 0.3225 0.0025 0.9466
vn 0.2206 0.3863 0.8956
vn 0.1552 0.3088 0.9384
vn 0.0688 -0.0000 0.9976
vn -0.0917 0.4679 0.8790
vn -0.3301 0.8674 0.3725
vn -0.4565 0.7992 -0.3911
vn -0.4098 0.4156 -0.8120
vn 0.0358 -0.0000 -0.9994
vn -0.0358 -0.0000 -0.9994
vn -0.5556 -0.0000 0.8314
vn -0.8315 -0.0000 0.5555
vn 0.2490 0.3070 0.9185
vn 0.2112 0.3039 0.9290
vn 0.1676 0.3924 0.9044
vn 0.1326 0.3147 0.9399
vn -0.4180 -0.0000 0.9084
vn -0.4827 0.8446 0.2315
vn -0.5473 0.7874 -0.2836
vn -0.6315 0.0127 -0.7752
vt 0.875000 0.500000
vt 0.853120 0.750000
vt 0.853120 0.500000
vt 0.625000 0.978120
vt 0.375000 1.000000
vt 0.375000 0.978120
vt 0.625000 0.000000
vt 0.375000 0.250000
vt 0.375000 0.000000
vt 0.625000 0.500000
vt 0.375000 0.750000
vt 0.375000 0.500000
vt 0.625000 0.496895
vt 0.375000 0.496895
vt 0.625000 0.414597
vt 0.375000 0.414597
vt 0.372296 0.750000
vt 0.371895 0.735959
vt 0.375000 0.753105
vt 0.625000 0.753105
vt 0.207298 0.750000
vt 0.289597 0.750000
vt 0.371895 0.500000
vt 0.371729 0.750000
vt 0.291091 0.750000
vt 0.375000 0.276775
vt 0.625000 0.332298
vt 0.375000 0.332298
vt 0.371895 0.750000
vt 0.848225 0.500000
vt 0.848225 0.750000
vt 0.800163 0.750000
vt 0.759846 0.750000
vt 0.743259 0.750000
vt 0.710403 0.624066
vt 0.708909 0.750000
vt 0.628271 0.750000
vt 0.628105 0.500000
vt 0.625000 0.271880
vt 0.375000 0.271880
vt 0.151775 0.500000
vt 0.146880 0.750000
vt 0.146880 0.500000
vt 0.375000 0.917702
vt 0.625000 0.917702
vt 0.199837 0.750000
vt 0.151775 0.750000
vt 0.125000 0.750000
vt 0.125000 0.500000
vt 0.625000 0.250000
vt 0.625000 0.973225
vt 0.375000 0.973225
vt 0.375000 0.780538
vt 0.625000 0.780538
vt 0.625000 0.750000
vt 0.628105 0.735959
vt 0.627704 0.750000
vt 0.375000 0.835403
vt 0.625000 0.835403
vt 0.628118 0.750000
vt 0.628105 0.750000
vt 0.628154 0.750000
vt 0.371792 0.750000
vt 0.371846 0.750000
vt 0.375000 0.753271
vt 0.625000 0.753208
vt 0.625000 0.753271
vt 0.375000 0.753208
vt 0.375000 0.753105
vt 0.628105 0.750000
vt 0.375000 0.917702
vt 0.207298 0.500000
vt 0.322453 0.750000
vt 0.174442 0.750000
vt 0.375000 0.833909
vt 0.375000 0.925164
vt 0.655538 0.750000
vt 0.792702 0.750000
vt 0.710403 0.750000
vt 0.306543 0.758602
vt 0.179320 0.758602
vt 0.289210 0.750000
vt 0.294954 0.750000
vt 0.201941 0.750000
vt 0.375000 0.834633
vt 0.625000 0.834598
vt 0.625000 0.833909
vt 0.625000 0.925163
vt 0.375000 0.924056
vt 0.625000 0.922891
vt 0.624977 0.917702
vt 0.344462 0.750000
vt 0.625000 0.780538
vt 0.375000 0.807970
vt 0.625000 0.807970
vt 0.317030 0.750000
vt 0.682970 0.750000
vt 0.875000 0.750000
vt 0.625000 1.000000
vt 0.289597 0.500000
vt 0.625000 0.276775
vt 0.792702 0.624066
vt 0.792702 0.500000
vt 0.710403 0.500000
vt 0.628208 0.751069
vt 0.371882 0.758668
vt 0.707902 0.750000
vt 0.759846 0.750000
s 0
usemtl Material
f 5/1/1 20/2/1 22/3/1
f 20/4/2 8/5/2 21/6/2
f 7/7/3 6/8/3 8/9/3
f 1/10/4 4/11/4 2/12/4
f 10/13/5 2/12/5 9/14/5
f 14/15/5 9/14/5 11/16/5
f 4/11/6 37/17/6 36/18/6
f 34/19/3 25/20/3 28/20/3
f 67/21/6 44/22/6 43/21/6
f 9/23/6 35/24/6 72/25/6
f 15/26/5 13/27/5 12/28/5
f 12/28/5 14/15/5 11/16/5
f 24/11/6 34/29/6 4/11/6
f 18/30/1 16/31/1 60/32/1
f 62/33/1 56/34/1 55/35/1
f 54/36/1 27/37/1 10/38/1
f 22/39/7 15/26/7 19/40/7
f 15/41/6 21/42/6 19/43/6
f 67/44/8 42/45/8 61/45/8
f 15/41/6 68/46/6 17/47/6
f 19/43/6 8/48/6 6/49/6
f 5/50/5 19/40/5 6/8/5
f 16/51/2 21/6/2 17/52/2
f 18/30/1 20/2/1 16/31/1
f 82/53/2 48/20/2 80/54/2
f 3/55/4 24/11/4 4/11/4
f 30/56/1 29/57/1 3/55/1
f 73/58/9 41/59/9 44/58/9
f 33/60/1 29/61/1 32/62/1
f 40/63/6 36/18/6 39/64/6
f 35/65/10 31/66/10 27/67/10
f 40/68/11 32/20/11 31/66/11
f 39/19/12 33/20/12 32/20/12
f 38/69/13 28/20/13 33/20/13
f 28/70/1 25/61/1 23/55/1
f 43/71/3 50/45/3 42/45/3
f 12/72/6 72/73/6 68/74/6
f 27/67/2 72/75/2 35/65/2
f 68/76/2 16/51/2 17/52/2
f 45/55/2 47/19/2 46/11/2
f 52/58/2 50/45/2 51/71/2
f 44/22/6 51/21/6 43/21/6
f 24/11/6 47/29/6 26/29/6
f 80/77/1 25/61/1 77/77/1
f 25/61/1 45/55/1 23/55/1
f 42/78/1 49/79/1 41/79/1
f 23/55/4 46/11/4 24/11/4
f 59/79/1 55/79/1 58/79/1
f 65/45/1 66/45/1 62/45/1
f 68/74/6 74/80/6 71/81/6
f 71/81/6 75/82/6 70/21/6
f 70/21/6 76/83/6 69/84/6
f 69/84/6 73/22/6 67/21/6
f 73/58/14 57/59/14 53/59/14
f 57/59/15 75/58/15 58/59/15
f 58/59/16 74/85/16 59/86/16
f 59/86/17 72/75/17 54/87/17
f 60/88/18 71/89/18 64/90/18
f 64/90/19 70/71/19 65/91/19
f 70/71/20 66/45/20 65/91/20
f 69/71/21 61/45/21 66/45/21
f 61/78/1 42/78/1 41/79/1
f 84/92/6 47/29/6 82/92/6
f 77/93/5 26/19/5 84/53/5
f 41/59/5 83/94/5 44/58/5
f 78/95/5 84/53/5 83/94/5
f 44/22/6 81/96/6 52/22/6
f 83/96/6 82/92/6 81/96/6
f 49/79/1 78/97/1 41/79/1
f 79/97/1 77/77/1 78/97/1
f 52/58/2 79/95/2 49/59/2
f 80/54/4 88/53/4 82/53/4
f 86/54/22 92/53/22 88/53/22
f 82/92/6 87/96/6 81/96/6
f 79/97/1 86/77/1 80/77/1
f 81/94/3 85/95/3 79/95/3
f 91/94/3 93/95/3 89/95/3
f 87/96/6 92/92/6 91/96/6
f 87/94/23 89/95/23 85/95/23
f 86/77/1 89/97/1 90/77/1
f 95/94/2 94/54/2 93/95/2
f 89/97/1 94/77/1 90/77/1
f 90/54/4 96/53/4 92/53/4
f 92/92/6 95/96/6 91/96/6
f 5/1/1 7/98/1 20/2/1
f 20/4/2 7/99/2 8/5/2
f 7/7/3 5/50/3 6/8/3
f 1/10/4 3/55/4 4/11/4
f 10/13/5 1/10/5 2/12/5
f 14/15/5 10/13/5 9/14/5
f 36/18/6 9/23/6 2/12/6
f 2/12/6 4/11/6 36/18/6
f 34/19/3 26/19/3 25/20/3
f 67/21/6 73/22/6 44/22/6
f 72/25/6 11/100/6 9/23/6
f 9/23/6 36/18/6 35/24/6
f 15/26/5 18/101/5 13/27/5
f 12/28/5 13/27/5 14/15/5
f 26/29/6 34/29/6 24/11/6
f 34/29/6 37/17/6 4/11/6
f 63/102/1 13/103/1 60/32/1
f 13/103/1 18/30/1 60/32/1
f 55/35/1 14/104/1 13/103/1
f 13/103/1 63/102/1 55/35/1
f 63/102/1 62/33/1 55/35/1
f 30/56/1 10/38/1 27/37/1
f 10/38/1 14/104/1 54/36/1
f 14/104/1 55/35/1 54/36/1
f 22/39/7 18/101/7 15/26/7
f 15/41/6 17/47/6 21/42/6
f 67/44/8 43/71/8 42/45/8
f 15/41/6 12/72/6 68/46/6
f 19/43/6 21/42/6 8/48/6
f 5/50/5 22/39/5 19/40/5
f 16/51/2 20/4/2 21/6/2
f 18/30/1 22/3/1 20/2/1
f 82/53/2 47/19/2 48/20/2
f 3/55/4 23/55/4 24/11/4
f 3/55/1 1/10/1 30/56/1
f 1/10/1 10/38/1 30/56/1
f 73/58/9 53/59/9 41/59/9
f 30/56/1 27/37/1 31/105/1
f 30/56/1 31/105/1 32/62/1
f 28/61/1 29/61/1 33/60/1
f 29/61/1 30/56/1 32/62/1
f 37/29/6 34/29/6 38/106/6
f 37/29/6 38/106/6 39/64/6
f 35/24/6 36/18/6 40/63/6
f 36/18/6 37/29/6 39/64/6
f 35/65/10 40/68/10 31/66/10
f 40/68/24 39/19/24 32/20/24
f 39/19/25 38/69/25 33/20/25
f 38/69/13 34/19/13 28/20/13
f 23/55/1 3/55/1 28/70/1
f 3/55/1 29/57/1 28/70/1
f 43/71/3 51/71/3 50/45/3
f 12/72/6 11/100/6 72/73/6
f 27/67/2 54/87/2 72/75/2
f 68/76/2 60/88/2 16/51/2
f 45/55/2 48/20/2 47/19/2
f 52/58/2 49/59/2 50/45/2
f 44/22/6 52/22/6 51/21/6
f 24/11/6 46/11/6 47/29/6
f 80/77/1 48/61/1 25/61/1
f 25/61/1 48/61/1 45/55/1
f 42/78/1 50/78/1 49/79/1
f 23/55/4 45/55/4 46/11/4
f 56/34/1 53/79/1 57/107/1
f 56/34/1 57/107/1 55/79/1
f 57/107/1 58/79/1 55/79/1
f 54/79/1 55/79/1 59/79/1
f 63/45/1 60/45/1 64/45/1
f 63/45/1 64/45/1 65/45/1
f 66/45/1 61/45/1 62/45/1
f 62/45/1 63/45/1 65/45/1
f 68/74/6 72/73/6 74/80/6
f 71/81/6 74/80/6 75/82/6
f 70/21/6 75/82/6 76/83/6
f 69/84/6 76/83/6 73/22/6
f 73/58/26 76/58/26 57/59/26
f 57/59/27 76/58/27 75/58/27
f 58/59/28 75/58/28 74/85/28
f 59/86/29 74/85/29 72/75/29
f 60/88/30 68/76/30 71/89/30
f 64/90/31 71/89/31 70/71/31
f 70/71/32 69/71/32 66/45/32
f 69/71/33 67/44/33 61/45/33
f 41/79/1 53/79/1 61/78/1
f 53/79/1 56/34/1 62/108/1
f 61/78/1 53/79/1 62/108/1
f 84/92/6 26/29/6 47/29/6
f 77/93/5 25/20/5 26/19/5
f 41/59/5 78/95/5 83/94/5
f 78/95/5 77/93/5 84/53/5
f 44/22/6 83/96/6 81/96/6
f 83/96/6 84/92/6 82/92/6
f 49/79/1 79/97/1 78/97/1
f 79/97/1 80/77/1 77/77/1
f 52/58/2 81/94/2 79/95/2
f 80/54/4 86/54/4 88/53/4
f 86/54/22 90/54/22 92/53/22
f 82/92/6 88/92/6 87/96/6
f 79/97/1 85/97/1 86/77/1
f 81/94/3 87/94/3 85/95/3
f 91/94/3 95/94/3 93/95/3
f 87/96/6 88/92/6 92/92/6
f 87/94/23 91/94/23 89/95/23
f 86/77/1 85/97/1 89/97/1
f 95/94/2 96/53/2 94/54/2
f 89/97/1 93/97/1 94/77/1
f 90/54/4 94/54/4 96/53/4
f 92/92/6 96/92/6 95/96/6
